<?xml version="1.0" encoding="UTF-8"?>
<svg width="1017px" height="200px" viewBox="0 0 1017 200" version="1.1" xmlns="http://www.w3.org/2000/svg" xmlns:xlink="http://www.w3.org/1999/xlink">
    <title>wavemarket-logo-text</title>
    <g id="wavemarket-logo-text" stroke="none" stroke-width="1" fill="none" fill-rule="evenodd">
        <path d="M154.778859,76.8996061 C154.778859,78.0762136 154.360004,79.492131 154.20044,80.249946 L134.693771,148.872085 C132.838842,155.891845 128.071875,159.242185 122.307634,159.242185 C116.443666,159.242185 111.417408,155.891845 109.662206,148.772373 L93.2670302,85.4349958 C93.087521,84.9364333 92.7683935,84.7768933 92.4293205,84.7768933 C92.0902475,84.7768933 91.7511745,84.9364333 91.5916107,85.4349958 L74.7576342,148.712545 C73.0024329,155.891845 68.3950294,159.242185 62.4712248,159.242185 C56.4277475,159.242185 51.9200713,155.891845 49.9853607,148.872085 L30.4986367,80.249946 C30.3191275,79.492131 30,78.0762136 30,76.8996061 C30,73.1304738 33.0117659,70.1191564 36.7615143,70.1191564 C39.6934983,70.1191564 42.4659186,72.0535788 43.3036284,75.3042062 C49.6462878,98.7366427 55.9291107,121.929769 62.05237,145.521746 C62.1321518,146.020308 62.5510067,146.359331 62.8900797,146.359331 C63.2092072,146.359331 63.5482802,146.020308 63.7277894,145.521746 C69.1529572,123.584997 74.6778523,101.74796 80.2027475,80.5091985 C81.8781669,73.5492663 86.9842072,70.1191564 92.4293205,70.1191564 C98.1137794,70.1191564 102.880747,73.7287488 104.635948,80.5889685 C110.340352,102.007213 115.76552,123.844249 121.290415,145.521746 C121.469924,146.020308 121.808997,146.359331 122.128125,146.359331 C122.467198,146.359331 122.806271,146.020308 122.965835,145.521746 C128.909585,122.169079 135.112626,98.8363552 141.395449,75.3042062 C142.233159,72.0535788 144.985633,70.1191564 147.997399,70.1191564 C151.687311,70.1191564 154.778859,73.1304738 154.778859,76.8996061" id="Fill-1" fill="#30BFBF"></path>
        <path d="M184.220367,131.964835 C184.220367,141.995912 191.320954,147.859007 205.56202,147.859007 C213.83939,147.859007 222.974415,144.688149 227.561873,141.258039 L227.561873,119.919565 C219.045157,117.56635 212.921898,116.230203 205.482238,116.230203 C190.902099,116.230203 184.220367,123.249963 184.220367,131.964835 M240.885447,100.675054 L240.885447,145.346252 C240.885447,147.779237 240.307028,149.294866 238.113026,150.870324 C233.60535,154.140894 221.298995,160.003988 204.145891,160.003988 C182.205875,160.003988 171.076302,148.537052 171.076302,132.044605 C171.076302,117.067788 181.866802,104.843036 204.145891,104.843036 C212.263698,104.843036 218.865648,105.939873 227.561873,108.352916 L227.561873,101.512639 C227.561873,88.1910491 221.199268,82.1684144 206.898366,82.1684144 C200.535761,82.1684144 193.355392,83.6840443 187.391697,86.5158792 C185.816005,87.1939242 184.639222,87.3534642 183.641948,87.3534642 C180.1116,87.3534642 177.279344,84.4418593 177.279344,81.0915195 C177.279344,78.8978445 178.276617,76.4050322 181.627456,74.8096322 C186.813278,72.2171073 196.606504,69.36533 206.898366,69.36533 C228.997947,69.36533 240.885447,78.6585346 240.885447,100.675054" id="Fill-3" fill="#30BFBF"></path>
        <path d="M337.064497,76.8996061 C337.064497,78.2357536 336.56586,79.571901 336.067223,80.8282785 L310.537022,149.031625 C308.103674,155.732305 303.835344,159.242185 297.811812,159.242185 C292.027626,159.242185 287.679513,155.812075 285.246166,149.290878 L259.396837,80.8282785 C258.898201,79.571901 258.479346,78.2357536 258.479346,76.8996061 C258.479346,73.1304738 261.491112,70.1191564 265.181023,70.1191564 C268.272571,70.1191564 270.785701,72.1333488 271.703192,74.8056437 L296.974102,145.441976 C297.153612,146.100078 297.472739,146.279561 297.891594,146.279561 C298.310449,146.279561 298.56974,146.100078 298.829031,145.441976 L323.760868,74.8056437 C324.67836,72.1333488 327.191489,70.1191564 330.283037,70.1191564 C333.972949,70.1191564 337.064497,73.1304738 337.064497,76.8996061" id="Fill-6" fill="#30BFBF"></path>
        <path d="M363.282817,109.120702 L408.21996,109.120702 C409.815598,109.120702 410.394016,108.54237 410.573526,106.8672 C411.650581,91.6311302 402.016919,81.7595932 387.456726,81.7595932 C370.981768,81.7595932 362.863962,92.1296927 363.282817,109.120702 M423.458299,105.43134 L423.458299,110.875642 C423.458299,116.579197 420.346806,120.408156 413.146491,120.408156 L363.282817,120.408156 L363.282817,123.259934 C363.282817,138.914796 373.734243,147.270703 388.633509,147.270703 C396.252678,147.270703 402.196428,146.094095 406.963396,143.840593 C409.05767,142.843468 410.733089,142.165423 412.248945,142.165423 C415.65962,142.165423 418.511823,145.0172 418.511823,148.52708 C418.511823,150.960065 417.275203,153.213568 413.924365,154.808967 C408.140178,157.660745 399.184662,159.994017 388.294436,159.994017 C364.938291,159.994017 351.55488,145.435993 350.218534,123.937979 C349.799679,117.735862 349.979188,109.040932 350.298316,103.75617 C351.973735,82.4176956 366.793219,69.3753012 387.456726,69.3753012 C409.556307,69.3753012 423.458299,84.1925781 423.458299,105.43134" id="Fill-8" fill="#30BFBF"></path>
        <path d="M565.843024,100.912369 L565.843024,154.21867 C565.843024,157.070447 564.167605,159.244179 560.97633,159.244179 C557.805,159.244179 556.129581,157.070447 556.129581,154.21867 L556.129581,102.088977 C556.129581,87.8699749 549.268339,79.9926878 534.708146,79.9926878 C524.496065,79.9926878 516.797114,84.5196351 511.611292,88.7075599 C512.768129,92.2174397 513.107202,96.225882 513.107202,101.251392 L513.107202,154.21867 C513.107202,157.070447 511.431783,159.244179 508.260453,159.244179 C505.089123,159.244179 503.413704,157.070447 503.413704,154.21867 L503.413704,102.088977 C503.413704,86.8529075 496.712026,79.9926878 481.473687,79.9926878 C475.111082,79.9926878 465.238075,83.5025676 460.391326,86.513885 L460.391326,154.21867 C460.391326,157.070447 458.715906,159.244179 455.365067,159.244179 C452.014228,159.244179 450.677882,157.070447 450.677882,154.21867 L450.677882,84.3401526 C450.677882,81.6678577 451.356028,80.5710202 453.011502,79.3146428 C458.636124,75.0668905 471.441116,70.2806907 482.151833,70.2806907 C495.036607,70.2806907 502.236921,74.648098 507.243234,80.1522277 C512.449002,76.3232679 521.324736,70.2806907 534.86771,70.2806907 C556.628217,70.2806907 565.843024,82.3459026 565.843024,100.912369" id="Fill-10" fill="#0C98BA"></path>
        <path d="M602.500803,132.54915 C602.500803,143.597294 610.020245,150.297974 626.435367,150.297974 C635.131592,150.297974 645.523182,146.947634 650.868568,142.939192 L650.868568,119.167733 C641.155124,116.475496 634.473391,114.979808 626.435367,114.979808 C610.020245,114.979808 602.500803,122.757383 602.500803,132.54915 M660.582011,100.421784 L660.582011,146.269589 C660.582011,148.104299 660.242938,149.460389 658.407955,150.796537 C653.880333,154.146877 641.334633,159.990029 624.939457,159.990029 C603.996714,159.990029 592.787359,149.280907 592.787359,132.38961 C592.787359,117.153541 603.996714,105.267811 625.777167,105.267811 C634.134318,105.267811 640.99556,106.444419 650.868568,109.116713 L650.868568,101.917471 C650.868568,86.601632 643.508689,80.0006647 628.110786,80.0006647 C621.249545,80.0006647 613.630375,81.5761222 607.088261,84.846692 C605.77186,85.524737 604.834423,85.604507 604.176223,85.604507 C601.483584,85.604507 599.309528,83.4307746 599.309528,80.8382497 C599.309528,79.0833098 600.147238,77.3084274 602.321294,76.1517624 C607.866135,73.299985 617.898706,70.2886677 628.110786,70.2886677 C649.193148,70.2886677 660.582011,79.1630798 660.582011,100.421784" id="Fill-12" fill="#0C98BA"></path>
        <path d="M732.497397,71.8760906 C734.671453,72.5541356 736.506437,73.970053 736.506437,76.6423479 C736.506437,79.3345853 734.33238,81.5083177 731.659687,81.5083177 C730.243559,81.5083177 728.468412,81.0097552 725.955283,80.5111927 C724.95801,80.3317102 722.105807,79.9926878 718.774914,79.9926878 C707.56556,79.9926878 702.040665,84.9384275 702.040665,96.385422 L702.040665,154.05913 C702.040665,156.910907 700.026172,159.244179 697.17397,159.244179 C694.501277,159.244179 692.327221,156.910907 692.327221,154.05913 L692.327221,95.9068021 C692.327221,79.8331478 701.701592,70.2806907 718.595405,70.2806907 C724.299809,70.2806907 729.645195,71.0385056 732.497397,71.8760906" id="Fill-14" fill="#0C98BA"></path>
        <path d="M764.5378,45.1850498 L764.5378,108.961162 L768.048203,108.961162 C771.897678,108.961162 774.410807,108.123577 777.761646,104.773237 L810.81129,72.9649511 C811.728781,72.0475961 813.164855,71.4692636 814.341638,71.4692636 C817.094113,71.4692636 819.268169,73.642996 819.268169,76.3152909 C819.268169,78.2497133 818.350677,79.3266083 817.173895,80.5032157 L781.950195,113.468167 L819.008878,150.720755 C820.026097,151.71788 820.604516,152.715005 820.604516,154.310405 C820.604516,156.9827 818.430459,159.156432 815.757766,159.156432 C814.42142,159.156432 813.164855,158.5781 812.247364,157.660745 L777.761646,122.841141 C774.410807,119.490802 771.897678,118.832699 767.868693,118.832699 L764.5378,118.832699 L764.5378,154.230635 C764.5378,157.06247 762.363744,159.236202 759.671105,159.236202 C756.998412,159.236202 754.824356,156.74339 754.824356,154.230635 L754.824356,45.1850498 C754.824356,42.3332724 756.998412,40 759.671105,40 C762.363744,40 764.5378,42.3332724 764.5378,45.1850498" id="Fill-16" fill="#0C98BA"></path>
        <path d="M847.309505,110.289332 L896.854052,110.289332 C898.529471,110.289332 899.207617,109.611287 899.367181,107.936118 C900.703528,90.8653383 889.99281,79.9966763 873.916762,79.9966763 C855.846166,79.9966763 846.810868,91.3838433 847.309505,110.289332 M909.080625,105.263823 L909.080625,111.126917 C909.080625,116.391737 906.068859,119.84179 899.367181,119.84179 L847.309505,119.84179 L847.309505,123.012647 C847.309505,140.741529 858.598641,150.293986 875.013763,150.293986 C882.972005,150.293986 889.254828,149.117378 894.261141,146.684393 C896.016342,145.846808 897.61198,145.188706 898.868544,145.188706 C901.541237,145.188706 903.735239,147.362438 903.735239,150.034733 C903.735239,152.048926 902.638238,153.724096 900.045327,154.980473 C894.44065,157.732538 885.564916,160.005983 874.933981,160.005983 C851.498054,160.005983 838.952353,145.428016 837.77557,123.670749 C837.436497,117.648115 837.596061,109.451747 837.935134,104.266698 C839.45099,83.0079936 854.011183,70.2846792 874.096271,70.2846792 C895.856779,70.2846792 909.080625,85.022186 909.080625,105.263823" id="Fill-18" fill="#0C98BA"></path>
        <path d="M946.015646,57.4058132 L946.015646,71.8042976 L972.882194,71.8042976 C975.654614,71.8042976 977.988234,73.7985475 977.988234,76.7300949 C977.988234,79.2428498 975.654614,81.3368122 972.882194,81.3368122 L946.015646,81.3368122 L946.015646,135.061905 C946.015646,143.756834 950.044631,150.297974 960.575839,150.297974 C964.844169,150.297974 969.1125,149.540159 973.56034,147.685507 C974.238486,147.446197 975.315541,147.027404 976.153251,147.027404 C978.825944,147.027404 981,149.121367 981,151.713892 C981,154.306416 979.324581,155.642564 976.811451,156.739401 C972.144211,158.753594 966.619316,160.009971 959.917638,160.009971 C943.342953,160.009971 936.322148,148.782344 936.322148,134.22432 L936.322148,57.4058132 C936.322148,54.5540359 938.496204,52.2207635 941.009333,52.2207635 C944.001154,52.2207635 946.015646,54.5540359 946.015646,57.4058132" id="Fill-21" fill="#0C98BA"></path>
    </g>
</svg>